<svg xmlns="http://www.w3.org/2000/svg" width="15" height="15" fill="none" viewBox="0 0 15 15"><g clip-path="url(#clip0_6108_2607)"><path fill="#181a20" d="M15 .65v9.7a.67.67 0 0 1-.175.45.57.57 0 0 1-.45.2.65.65 0 0 1-.475-.2.62.62 0 0 1-.2-.45V2.2L1.1 14.8a.65.65 0 0 1-.475.2.6.6 0 0 1-.45-.175.6.6 0 0 1-.175-.45q0-.275.2-.475L12.8 1.3H4.65a.62.62 0 0 1-.45-.2A.65.65 0 0 1 4 .625a.57.57 0 0 1 .2-.45A.67.67 0 0 1 4.65 0h9.7q.3 0 .475.175T15 .65"/></g><defs><clipPath id="clip0_6108_2607"><path fill="#fff" d="M0 15h15V0H0Z"/></clipPath></defs></svg>