<svg xmlns="http://www.w3.org/2000/svg" width="138" height="44" fill="none" viewBox="0 0 138 44"><g clip-path="url(#clip0_6108_3143)"><g clip-path="url(#clip1_6108_3143)"><g clip-path="url(#clip2_6108_3143)"><path fill="#fff" d="M62.382 16.636q1.386 0 2.464.616 1.078.594 1.672 1.782.615 1.166.616 2.816V29h-3.08v-6.732q0-1.452-.726-2.222-.726-.792-1.98-.792-1.275 0-2.024.792-.726.77-.726 2.222V29h-3.08V12.72h3.08v5.61q.594-.792 1.584-1.232.99-.462 2.2-.462m13.533 12.562q-1.76 0-3.168-.77a5.8 5.8 0 0 1-2.222-2.222q-.792-1.43-.792-3.3t.814-3.3a5.73 5.73 0 0 1 2.266-2.2q1.43-.792 3.19-.792t3.19.792a5.6 5.6 0 0 1 2.244 2.2q.836 1.43.836 3.3t-.858 3.3a5.85 5.85 0 0 1-2.288 2.222q-1.43.77-3.212.77m0-2.684q.836 0 1.562-.396a3 3 0 0 0 1.188-1.232q.44-.814.44-1.98 0-1.738-.924-2.662-.902-.946-2.222-.946t-2.222.946q-.88.924-.88 2.662t.858 2.684q.88.924 2.2.924m24.193-9.878q2.244 0 3.608 1.386 1.386 1.364 1.386 3.828V29h-3.08v-6.732q0-1.43-.726-2.178-.726-.77-1.98-.77t-2.002.77q-.726.749-.726 2.178V29h-3.08v-6.732q0-1.43-.726-2.178-.726-.77-1.98-.77-1.275 0-2.024.77-.726.749-.726 2.178V29h-3.08V16.812h3.08v1.474a4.1 4.1 0 0 1 1.518-1.21q.946-.44 2.068-.44 1.43 0 2.552.616a4.17 4.17 0 0 1 1.738 1.716q.594-1.056 1.716-1.694a5 5 0 0 1 2.464-.638m19.687 6.006q0 .66-.088 1.188h-8.91q.11 1.32.924 2.068t2.002.748q1.716 0 2.442-1.474h3.322q-.528 1.76-2.024 2.904-1.496 1.122-3.674 1.122-1.76 0-3.168-.77a5.67 5.67 0 0 1-2.178-2.222q-.77-1.43-.77-3.3 0-1.892.77-3.322a5.37 5.37 0 0 1 2.156-2.2q1.386-.77 3.19-.77 1.739 0 3.102.748a5.16 5.16 0 0 1 2.134 2.134q.77 1.364.77 3.146m-3.19-.88q-.023-1.188-.858-1.892-.836-.726-2.046-.726-1.144 0-1.936.704-.77.682-.946 1.914Zm8.694 4.708h5.434V29h-8.932v-2.486l5.324-7.172h-5.302v-2.53h8.844v2.486Z"/><path fill="#eb6753" d="M24 0h-4C8.954 0 0 8.954 0 20v4c0 11.046 8.954 20 20 20h4c11.046 0 20-8.954 20-20v-4C44 8.954 35.046 0 24 0"/><mask id="mask0_6108_3143" width="24" height="24" x="10" y="10" maskUnits="userSpaceOnUse" style="mask-type:luminance"><path fill="#fff" d="M34 10H10v24h24Z"/></mask><g mask="url(#mask0_6108_3143)"><path fill="#fff" d="m32.772 22.117-1.124-.976v9.209c0 1.55-1.26 2.81-2.81 2.81h-3.376c.284-.29.584-.613.886-.962q.398-.46.741-.911h1.749c.516 0 .937-.42.937-.937V19.514L22 12.762l-7.775 6.752V30.35c0 .516.42.937.937.937h1.749q.344.452.741.911c.302.349.602.672.886.962h-3.376c-1.55 0-2.81-1.26-2.81-2.81V21.14l-1.124.976L10 20.702l12-10.42 12 10.42ZM22 24.21A1.405 1.405 0 1 0 21.999839189650558 27.02 1.405 1.405 0 0 0 22 24.21m5.385 1.689c0 1.487-.825 3.194-2.453 5.072a21 21 0 0 1-2.34 2.302l-.592.482-.591-.482a21 21 0 0 1-2.34-2.302c-1.629-1.878-2.454-3.585-2.454-5.072v-.28A5.39 5.39 0 0 1 22 20.234a5.39 5.39 0 0 1 5.385 5.385Zm-1.873-.28A3.516 3.516 0 0 0 22 22.107a3.516 3.516 0 0 0-3.512 3.512v.28c0 .995.709 2.36 1.996 3.846a20 20 0 0 0 1.519 1.559c1.34-1.23 3.508-3.599 3.508-5.405Z"/></g></g></g></g><defs><clipPath id="clip0_6108_3143"><path fill="#fff" d="M0 0h138v44H0Z"/></clipPath><clipPath id="clip1_6108_3143"><path fill="#fff" d="M0 0h138v44H0Z"/></clipPath><clipPath id="clip2_6108_3143"><path fill="#fff" d="M0 0h138v44H0Z"/></clipPath></defs></svg>