<svg xmlns="http://www.w3.org/2000/svg" width="18" height="18" fill="none" viewBox="0 0 18 18"><path fill="#fff" d="m17.24 11.374-1.597-1.598a1.845 1.845 0 0 0-2.548 0l-.563.563a2.036 2.036 0 0 1-2.874 0c-.433-.433-.709-.726-.984-1.013-.276-.287-.563-.596-1.013-1.04a2.03 2.03 0 0 1 0-2.869l.563-.563a1.79 1.79 0 0 0 0-2.543L6.626.704A2.41 2.41 0 0 0 4.927 0 2.38 2.38 0 0 0 3.24.703L1.716 2.216a5.867 5.867 0 0 0 0 8.291c.878.878 1.88 1.868 2.875 2.903s1.974 2.002 2.846 2.903a5.867 5.867 0 0 0 8.286 0l1.519-1.52c.446-.448.699-1.054.703-1.687a2.38 2.38 0 0 0-.703-1.733m-.849 2.548-.163.14-1.631-1.636a.602.602 0 1 0-.85.85l1.66 1.658-.507.507a4.67 4.67 0 0 1-6.593 0c-.865-.867-1.85-1.868-2.812-2.87-.961-1-2.002-2.03-2.88-2.907a4.67 4.67 0 0 1 0-6.593l.507-.506 1.603 1.654a.607.607 0 0 0 .872-.844L3.909 1.687l.163-.163a1.19 1.19 0 0 1 .85-.354c.319.001.624.128.85.354L7.373 3.15a.6.6 0 0 1 .13.65.6.6 0 0 1-.13.194l-.562.562a3.234 3.234 0 0 0 0 4.567c.472.44.731.715 1.035 1.002s.562.596 1.007 1.035a3.235 3.235 0 0 0 4.567 0l.563-.563a.62.62 0 0 1 .85 0l1.596 1.598a1.2 1.2 0 0 1 .354.85 1.2 1.2 0 0 1-.394.872Z"/></svg>