<svg xmlns="http://www.w3.org/2000/svg" width="18" height="18" fill="none" viewBox="0 0 18 18"><g clip-path="url(#clip0_6108_3176)"><path fill="#fff" d="M9 11.4q-1.14 0-2.1-.57T5.37 9.3 4.8 7.2t.57-2.1T6.9 3.57 9 3t2.1.57 1.53 1.53.57 2.1-.57 2.1-1.53 1.53-2.1.57m0-7.2q-1.26 0-2.13.87T6 7.2t.87 2.13T9 10.2t2.13-.87T12 7.2t-.87-2.13T9 4.2M9 0Q6.54 0 4.47 1.2T1.2 4.47 0 9t1.2 4.53 3.27 3.27T9 18t4.53-1.2 3.27-3.27T18 9t-1.2-4.53a8.85 8.85 0 0 0-3.27-3.27Q11.46 0 9 0M4.26 15.18q.6-.66 1.41-1.02t1.65-.36h3.36q.84 0 1.65.36t1.41 1.02q-1.38 1.08-3.06 1.44a7.9 7.9 0 0 1-3.36 0 7.4 7.4 0 0 1-3.06-1.44m10.38-.84q-.78-.84-1.83-1.29t-2.19-.45h-3.3q-1.08 0-2.13.45t-1.83 1.29q-1.44-1.5-1.92-3.48T1.5 6.9t2.04-3.48 3.48-2.01 3.99 0 3.48 2.01 2.04 3.48.09 3.96-1.98 3.48"/></g><defs><clipPath id="clip0_6108_3176"><path fill="#fff" d="M0 18h18V0H0Z"/></clipPath></defs></svg>