<svg xmlns="http://www.w3.org/2000/svg" width="14" height="14" fill="none" viewBox="0 0 14 14"><g clip-path="url(#clip0_6108_3181)"><path fill="#fff" d="M14 .607V9.66a.62.62 0 0 1-.163.42.53.53 0 0 1-.42.187.6.6 0 0 1-.443-.187.58.58 0 0 1-.187-.42V2.053l-11.76 11.76A.6.6 0 0 1 .584 14a.57.57 0 0 1-.42-.163.57.57 0 0 1-.163-.42q-.002-.257.186-.444l11.76-11.76H4.34a.58.58 0 0 1-.42-.187.6.6 0 0 1-.187-.443q0-.255.187-.42A.62.62 0 0 1 4.34 0h9.053a.6.6 0 0 1 .443.163.6.6 0 0 1 .163.443"/></g><defs><clipPath id="clip0_6108_3181"><path fill="#fff" d="M0 14h14V0H0Z"/></clipPath></defs></svg>