<svg xmlns="http://www.w3.org/2000/svg" width="50" height="50" fill="none" viewBox="0 0 50 50"><rect width="50" height="50" fill="#fff" rx="25"/><g clip-path="url(#clip0_6108_2630)"><path fill="#181a20" d="M32.553 14.2q-.953-.953-2.273-.953H17.227q-1.32 0-2.274.953T14 16.473v14.3q0 .66.33 1.137t.88.697 1.137.11a1.58 1.58 0 0 0 .953-.55l2.567-2.567H30.28q1.32 0 2.273-.953.954-.954.954-2.274v-9.9q0-1.32-.954-2.273m-.293 12.173q0 .807-.587 1.357-.585.55-1.393.55H19.573q-.22 0-.44.22l-2.713 2.787q-.294.293-.697.11-.403-.184-.403-.55V16.474q0-.808.55-1.357.55-.55 1.357-.55H30.28q.807 0 1.393.55.587.549.587 1.356Zm-8.873-9.753-5.207 3.227.66 1.1.953-.587v3.3q0 .807.587 1.393.587.587 1.393.587h3.887q.807 0 1.393-.587.587-.585.587-1.393v-3.3l.953.587.734-1.1-5.207-3.227a.67.67 0 0 0-.733 0m3.006 7.04a1 1 0 0 1-.257.477.56.56 0 0 1-.403.183h-3.96q-.22 0-.44-.183a.6.6 0 0 1-.22-.477v-4.107l2.64-1.613 2.64 1.613Z"/></g><defs><clipPath id="clip0_6108_2630"><path fill="#fff" d="M14 34h22V12H14Z"/></clipPath></defs></svg>