<svg xmlns="http://www.w3.org/2000/svg" width="50" height="50" fill="none" viewBox="0 0 50 50"><rect width="50" height="50" fill="#fff" rx="25"/><g clip-path="url(#clip0_6108_2640)"><path fill="#181a20" d="m34.282 20.507-7.48-7.407Q25.776 12 24.235 12q-1.54 0-2.566 1.1l-7.48 7.407a.59.59 0 0 0-.183.513.97.97 0 0 0 .22.513q.182.22.476.22a.7.7 0 0 0 .513-.22l7.48-7.406q.66-.66 1.54-.66t1.54.66l7.48 7.406q.293.367.734.257a.71.71 0 0 0 .55-.55q.11-.44-.257-.733M24.235 29.6h-4.4q-.88 0-1.54-.66t-.66-1.54v-4.913q0-.22-.22-.44a.7.7 0 0 0-.513-.22.7.7 0 0 0-.513.22q-.22.22-.22.44V27.4q0 1.54 1.063 2.603 1.064 1.064 2.603 1.064h3.667v2.2q0 .293.22.476a.78.78 0 0 0 .513.183.78.78 0 0 0 .513-.183.59.59 0 0 0 .22-.477v-2.933a.7.7 0 0 0-.22-.513.7.7 0 0 0-.513-.22m7.334-7.847a.7.7 0 0 0-.513.22.7.7 0 0 0-.22.513V27.4q0 .881-.66 1.541t-1.54.66h-1.467q-.44-.073-.697.33a.7.7 0 0 0 0 .807q.256.404.697.33h1.467q1.54 0 2.603-1.064 1.063-1.063 1.063-2.603v-4.913a.7.7 0 0 0-.22-.513.7.7 0 0 0-.513-.22M27.975 23q0-1.54-1.1-2.64t-2.64-1.1-2.64 1.1-1.1 2.64 1.1 2.64q1.101 1.1 2.64 1.1t2.64-1.1 1.1-2.64m-5.866 0q0-.88.623-1.503a2.05 2.05 0 0 1 1.503-.623q.88 0 1.504.623.623.622.623 1.503t-.623 1.503a2.05 2.05 0 0 1-1.503.623 2.05 2.05 0 0 1-1.503-.623A2.05 2.05 0 0 1 22.109 23"/></g><defs><clipPath id="clip0_6108_2640"><path fill="#fff" d="M14 34h22V12H14Z"/></clipPath></defs></svg>