<svg xmlns="http://www.w3.org/2000/svg" width="50" height="50" fill="none" viewBox="0 0 50 50"><rect width="50" height="50" fill="#fff" rx="25"/><g clip-path="url(#clip0_6108_2635)"><path fill="#181a20" d="M31.6 28.867V20.36q0-1.907-.99-3.557a7.3 7.3 0 0 0-2.64-2.603 7 7 0 0 0-3.557-.953h-1.32a7 7 0 0 0-3.557.953 7.3 7.3 0 0 0-2.64 2.603 6.8 6.8 0 0 0-.99 3.557v8.507H14v1.32h4.547v2.567h1.32v-2.567h7.773v2.567h1.32v-2.567h4.547v-1.32Zm-1.32-8.507v1.32h-5.867v-7.187q1.614 0 2.934.807a6.2 6.2 0 0 1 2.127 2.163q.806 1.357.806 2.897m-13.053 0q0-1.54.806-2.897A6.2 6.2 0 0 1 20.16 15.3q1.32-.807 2.933-.807v7.187h-5.867Zm0 2.64h5.867v5.867h-5.867Zm7.186 5.867V23h5.867v5.867Z"/></g><defs><clipPath id="clip0_6108_2635"><path fill="#fff" d="M14 34h22V12H14Z"/></clipPath></defs></svg>