<svg xmlns="http://www.w3.org/2000/svg" width="50" height="50" fill="none" viewBox="0 0 50 50"><rect width="50" height="50" fill="#fff" rx="25"/><g clip-path="url(#clip0_6108_2615)"><path fill="#181a20" d="m32.48 18.82-2.86-1.467v-2.2q0-.806-.587-1.356a1.97 1.97 0 0 0-1.393-.55h-7.773q-.807 0-1.394.55a1.79 1.79 0 0 0-.587 1.357v2.2l-2.86 1.466a1.8 1.8 0 0 0-.733.697A2 2 0 0 0 14 20.58v11.513q0 .294.183.477a.65.65 0 0 0 .477.183h18.187a.65.65 0 0 0 .477-.183.65.65 0 0 0 .183-.477V20.58q0-.587-.294-1.063a1.8 1.8 0 0 0-.733-.697M17.887 31.507h-2.64V20.58a.72.72 0 0 1 .367-.66l2.273-1.1Zm7.846 0h-3.96v-2.64h3.96Zm2.567 0h-1.32v-3.3a.65.65 0 0 0-.183-.477.56.56 0 0 0-.403-.183h-5.28q-.22 0-.44.183a.59.59 0 0 0-.22.477v3.227h-1.247v-16.28q0-.22.183-.44a.59.59 0 0 1 .477-.22h7.773q.293 0 .477.22.183.22.183.44Zm3.96 0h-2.64V18.82l2.273 1.1a.72.72 0 0 1 .367.66Zm-7.847-7.847h2.64v1.32h-2.64Zm-3.886 0h2.567v1.32h-2.567Zm3.886-2.64h2.64v1.32h-2.64Zm-3.886 0h2.567v1.32h-2.567Zm3.886-2.567h2.64V19.7h-2.64Zm-3.886 0h2.567V19.7h-2.567Zm3.886-2.64h2.64v1.32h-2.64Zm-3.886 0h2.567v1.32h-2.567Z"/></g><defs><clipPath id="clip0_6108_2615"><path fill="#fff" d="M14 34h22V12H14Z"/></clipPath></defs></svg>