<svg xmlns="http://www.w3.org/2000/svg" width="50" height="50" fill="none" viewBox="0 0 50 50"><rect width="50" height="50" fill="#fff" rx="25"/><g clip-path="url(#clip0_6108_2625)"><path fill="#181a20" d="m31.893 17.793-7.846-4.473q-.293-.22-.587 0l-7.847 4.473a3.4 3.4 0 0 0-1.173 1.173A3.1 3.1 0 0 0 14 20.58v8.947q0 1.32.953 2.274.954.953 2.274.953H30.28q1.32 0 2.273-.953t.954-2.273V20.58q0-.88-.44-1.613a3.4 3.4 0 0 0-1.173-1.173m-7.48 8.434q0-1.027.77-1.797.771-.77 1.797-.77.293 0 .477.183a.65.65 0 0 1 .183.477q0 1.1-.77 1.833-.77.734-1.797.734h-.66Zm-1.32.66h-.66q-1.026 0-1.796-.734t-.77-1.833q0-.294.183-.477a.65.65 0 0 1 .477-.183q1.026 0 1.796.77t.77 1.797Zm9.167 2.64q0 .806-.587 1.393a1.9 1.9 0 0 1-1.393.587h-5.867v-3.3h.66q1.614 0 2.75-1.137 1.137-1.137 1.137-2.75 0-.807-.587-1.393a1.9 1.9 0 0 0-1.393-.587q-1.614 0-2.713 1.173a5.5 5.5 0 0 0-.513.587 4.5 4.5 0 0 0-1.43-1.283 3.73 3.73 0 0 0-1.87-.477q-.807 0-1.357.587-.55.586-.55 1.393 0 1.613 1.136 2.75 1.137 1.137 2.75 1.137h.66v3.3h-5.867a1.9 1.9 0 0 1-1.393-.587 1.9 1.9 0 0 1-.587-1.393V20.58q0-.513.294-.953a2.6 2.6 0 0 1 .733-.733l7.48-4.254 7.48 4.253q.44.294.734.734.293.439.293.953Z"/></g><defs><clipPath id="clip0_6108_2625"><path fill="#fff" d="M14 34h22V12H14Z"/></clipPath></defs></svg>