<svg xmlns="http://www.w3.org/2000/svg" width="50" height="50" fill="none" viewBox="0 0 50 50"><rect width="50" height="50" fill="#fff" rx="25"/><g clip-path="url(#clip0_6108_2610)"><path fill="#181a20" d="M30.867 34h-13.2q-1.467 0-2.53-1.063-1.064-1.064-1.064-2.604L14 20.58q0-1.393.623-2.53.624-1.137 1.797-1.87l5.867-3.667A3.8 3.8 0 0 1 24.23 12q1.064 0 1.943.513l5.867 3.667a4.47 4.47 0 0 1 1.797 1.833q.623 1.174.623 2.567l.073 9.753q0 1.54-1.063 2.604Q32.406 34 30.867 34m-6.6-20.533q-.66 0-1.174.293l-5.94 3.667a3.5 3.5 0 0 0-1.247 1.357 3.8 3.8 0 0 0-.44 1.797v9.753q0 .88.66 1.54t1.54.66h13.2q.954 0 1.577-.66t.624-1.54V20.58q0-1.028-.477-1.834a3.9 3.9 0 0 0-1.283-1.32l-5.94-3.667a2.2 2.2 0 0 0-1.1-.293M27.2 29.6h-5.867a.59.59 0 0 1-.477-.22.78.78 0 0 1-.183-.513q0-.294.184-.514a.59.59 0 0 1 .477-.22H27.2q.439-.073.696.33a.7.7 0 0 1 0 .807q-.257.404-.697.33"/></g><defs><clipPath id="clip0_6108_2610"><path fill="#fff" d="M14 34h22V12H14Z"/></clipPath></defs></svg>