<svg xmlns="http://www.w3.org/2000/svg" width="50" height="50" fill="none" viewBox="0 0 50 50"><rect width="50" height="50" fill="#fff" rx="25"/><g clip-path="url(#clip0_6108_2620)"><path fill="#181a20" d="m30.793 17.867-5.866-4.107q-.808-.513-1.834-.513t-1.833.513l-5.867 4.107q-.66.44-1.026 1.136A3.2 3.2 0 0 0 14 20.506v9.02q0 1.32.953 2.274.954.953 2.274.953H28.96q1.32 0 2.273-.953t.954-2.273v-9.02a3.2 3.2 0 0 0-.367-1.503 3.06 3.06 0 0 0-1.027-1.137m-14.666 1.026 5.866-4.033a1.6 1.6 0 0 1 1.063-.367q.624 0 1.137.367l5.794 4.033q.44.294.66.734t.22.88v7.7H15.32v-7.7q0-.514.22-.917a2.3 2.3 0 0 1 .587-.697M30.28 30.92q-.513.587-1.32.587H17.227q-.807 0-1.357-.587a1.97 1.97 0 0 1-.55-1.393h15.547q0 .806-.587 1.393m-7.773-5.28q0 .292.183.477a.6.6 0 0 0 .44.183.6.6 0 0 0 .44-.183.65.65 0 0 0 .183-.477.65.65 0 0 0-.183-.477.6.6 0 0 0-.44-.183.6.6 0 0 0-.44.183.65.65 0 0 0-.183.477m.66-3.227q-.88 0-1.65.44a3.3 3.3 0 0 0-1.21 1.173l1.173.66a1.58 1.58 0 0 1 .66-.77q.44-.256.99-.256t.99.257q.44.255.733.77l1.1-.66a3.3 3.3 0 0 0-1.21-1.173 3.14 3.14 0 0 0-1.577-.44m0-1.32q1.173 0 2.236.624a4.45 4.45 0 0 1 1.65 1.65l1.174-.66a6.2 6.2 0 0 0-2.163-2.127 5.64 5.64 0 0 0-2.933-.807 5.64 5.64 0 0 0-2.933.807 5.6 5.6 0 0 0-2.09 2.127l1.099.66a4.45 4.45 0 0 1 1.65-1.65 4.5 4.5 0 0 1 2.31-.623"/></g><defs><clipPath id="clip0_6108_2620"><path fill="#fff" d="M14 34h22V12H14Z"/></clipPath></defs></svg>